<?xml version="1.0" encoding="UTF-8"?>
<svg width="516px" height="165px" viewBox="0 0 516 165" version="1.1" xmlns="http://www.w3.org/2000/svg" xmlns:xlink="http://www.w3.org/1999/xlink">
    <title>coffeeco</title>
    <g id="Page-1" stroke="none" stroke-width="1" fill="none" fill-rule="evenodd">
        <g id="coffeeco" transform="translate(0.607000, 0.354000)" fill-rule="nonzero">
            <g id="Group" transform="translate(0.000000, 57.925000)" fill="#FFFFFF">
                <path d="M30.571,48.958 L30.571,47.146 C30.571,39.117 27.72,35.75 22.54,35.75 C17.359,35.75 14.508,39.117 14.508,47.146 L14.508,72.794 C14.508,80.823 17.359,84.19 22.54,84.19 C27.72,84.19 30.571,80.823 30.571,72.794 L30.571,68.389 L45.077,68.389 L45.077,70.201 C45.077,85.487 39.119,96.109 22.54,96.109 C5.96,96.109 0,85.487 0,70.201 L0,49.739 C0,34.452 5.96,23.831 22.54,23.831 C38.861,23.831 44.816,34.065 45.077,48.958 L30.571,48.958 Z" id="Path"></path>
                <path d="M57.506,49.739 C57.506,34.452 63.461,23.831 80.04,23.831 C96.62,23.831 102.58,34.452 102.58,49.739 L102.58,70.201 C102.58,85.487 96.62,96.109 80.04,96.109 C63.461,96.109 57.506,85.487 57.506,70.201 L57.506,49.739 Z M88.072,47.145 C88.072,39.116 85.223,35.749 80.04,35.749 C74.86,35.749 72.011,39.116 72.011,47.145 L72.011,72.793 C72.011,80.822 74.86,84.189 80.04,84.189 C85.223,84.189 88.072,80.822 88.072,72.793 L88.072,47.145 Z" id="Shape"></path>
                <path d="M118.633,37.043 L110.085,37.043 L110.085,25.127 L118.633,25.127 L118.633,16.447 C118.633,5.18 124.593,0 134.825,0 L142.079,0 L142.079,11.915 L137.932,11.915 C134.438,11.915 133.141,13.212 133.141,16.579 L133.141,25.127 L141.431,25.127 L141.431,37.043 L133.141,37.043 L133.141,94.812 L118.633,94.812 L118.633,37.043 Z" id="Path"></path>
                <path d="M149.457,37.043 L140.909,37.043 L140.909,25.127 L149.457,25.127 L149.457,16.447 C149.457,5.18 155.417,0 165.649,0 L172.903,0 L172.903,11.915 L168.756,11.915 C165.262,11.915 163.965,13.212 163.965,16.579 L163.965,25.127 L172.255,25.127 L172.255,37.043 L163.965,37.043 L163.965,94.812 L149.457,94.812 L149.457,37.043 Z" id="Path"></path>
                <path d="M226.913,62.69 L196.345,62.69 L196.345,72.794 C196.345,80.823 199.196,84.19 204.376,84.19 C209.557,84.19 212.408,80.823 212.408,72.794 L212.408,71.239 L226.913,71.239 C226.652,86.006 220.565,96.109 204.376,96.109 C187.797,96.109 181.836,85.487 181.836,70.201 L181.836,49.739 C181.836,34.452 187.796,23.831 204.376,23.831 C220.956,23.831 226.913,34.452 226.913,49.739 L226.913,62.69 Z M212.407,50.774 L212.407,47.146 C212.407,39.117 209.556,35.75 204.375,35.75 C199.195,35.75 196.344,39.117 196.344,47.146 L196.344,50.774 L212.407,50.774 Z" id="Shape"></path>
                <path d="M284.416,62.69 L253.845,62.69 L253.845,72.794 C253.845,80.823 256.696,84.19 261.876,84.19 C267.057,84.19 269.908,80.823 269.908,72.794 L269.908,71.239 L284.416,71.239 C284.154,86.006 278.065,96.109 261.876,96.109 C245.296,96.109 239.339,85.487 239.339,70.201 L239.339,49.739 C239.339,34.452 245.297,23.831 261.876,23.831 C278.455,23.831 284.416,34.452 284.416,49.739 L284.416,62.69 Z M269.909,50.774 L269.909,47.146 C269.909,39.117 267.057,35.75 261.877,35.75 C256.697,35.75 253.846,39.117 253.846,47.146 L253.846,50.774 L269.909,50.774 Z" id="Shape"></path>
            </g>
            <g id="Group" transform="translate(414.800000, 81.756000)" fill="#FFFFFF">
                <path d="M30.568,25.127 L30.568,23.315 C30.568,15.286 27.716,11.916 22.537,11.916 C17.355,11.916 14.506,15.286 14.506,23.315 L14.506,48.963 C14.506,56.992 17.356,60.359 22.537,60.359 C27.717,60.359 30.568,56.992 30.568,48.963 L30.568,44.558 L45.076,44.558 L45.076,46.37 C45.076,61.653 39.115,72.278 22.537,72.278 C5.957,72.278 0,61.653 0,46.37 L0,25.908 C0,10.621 5.957,-3.55271368e-15 22.537,-3.55271368e-15 C38.857,-3.55271368e-15 44.814,10.234 45.076,25.127 L30.568,25.127 Z" id="Path"></path>
                <path d="M54.909,25.908 C54.909,10.621 60.87,7.10542736e-15 77.448,7.10542736e-15 C94.028,7.10542736e-15 99.985,10.621 99.985,25.908 L99.985,46.37 C99.985,61.653 94.028,72.278 77.448,72.278 C60.87,72.278 54.909,61.653 54.909,46.37 L54.909,25.908 Z M85.48,23.314 C85.48,15.285 82.63,11.915 77.449,11.915 C72.269,11.915 69.418,15.285 69.418,23.314 L69.418,48.962 C69.418,56.991 72.27,60.358 77.449,60.358 C82.631,60.358 85.48,56.991 85.48,48.962 L85.48,23.314 Z" id="Shape"></path>
            </g>
            <g id="Group" transform="translate(297.778000, 0.000000)">
                <path d="M0,68.786 C3.95,92.098 7.041,114.925 12.08,137.306 C13.592,144.015 19.541,150.766 25.238,155.245 C35.662,163.45 48.369,165.042 61.48,162.817 C81.285,159.461 92.009,148.689 95.111,129 C96.72,118.819 98.502,108.663 100.193,98.493 C101.812,88.775 103.4,79.062 105.095,68.812 C69.617,87.935 35.146,87.806 0,68.786 L0,68.786 Z" id="Path" fill="#BCBDBE"></path>
                <path d="M49.75,28.528 C55.225,32.328 61.291,36.022 67.15,39.803 C70.007,41.634 72.773,43.666 74.793,45.94 C76.809,48.338 77.484,50.275 75.895,52.317 C74.307,54.404 71.608,56.17 69.094,57.619 C66.53,59.068 64,60.39 61.633,61.577 C56.906,63.945 52.996,66.096 50.305,67.647 C47.621,69.239 46.19,70.283 46.19,70.283 C46.19,70.283 47.835,69.632 50.71,68.491 C53.573,67.321 57.761,65.956 62.751,64.111 C65.243,63.168 67.958,62.172 70.772,60.823 C73.555,59.405 76.665,58.046 79.293,54.947 C80.6,53.45 81.586,50.97 81.189,48.596 C80.832,46.241 79.662,44.409 78.433,42.867 C75.867,39.897 72.878,37.703 69.849,35.679 C66.839,33.671 63.826,31.922 60.859,30.077 C57.898,28.28 54.982,26.515 52.162,24.805 C46.613,21.34 41.338,18.146 37.933,14.576 C36.263,12.782 35.255,10.863 35.138,8.972 C35.056,7.075 35.742,5.333 36.45,4.024 C37.915,1.38 39.098,7.99360578e-15 39.098,7.99360578e-15 C39.098,7.99360578e-15 38.76,0.292 38.133,0.836 C37.51,1.396 36.582,2.218 35.613,3.484 C34.66,4.735 33.543,6.471 33.23,8.904 C32.91,11.349 33.939,14.174 35.664,16.419 C39.103,21.011 44.279,24.739 49.75,28.528 Z" id="Path" fill="#594A42"></path>
            </g>
            <path d="M347.274,141.97 C339.016,141.97 334.161,138.139 334.161,131.014 C334.161,125.778 336.747,122.648 341.876,120.49 C339.394,117.736 338.368,115.092 338.368,112.178 C338.368,106.778 342.091,103.055 348.571,103.055 C354.616,103.055 358.45,106.617 358.45,112.068 C358.45,116.384 355.694,118.925 351.325,121.138 L357.046,128.152 C357.585,126.856 358.017,125.454 358.45,123.941 C358.77,122.808 359.96,122.107 361.093,122.431 L362.767,122.864 C363.9,123.188 364.601,124.374 364.279,125.507 C363.523,128.421 362.55,131.122 361.31,133.391 L366.382,139.597 C366.925,140.3 366.437,141.27 365.575,141.27 L360.231,141.27 C358.934,141.27 357.53,140.622 356.721,139.597 L356.451,139.22 C354.022,141 351.053,141.97 347.274,141.97 L347.274,141.97 Z M348.03,136.088 C349.811,136.088 351.325,135.545 352.673,134.524 L344.954,124.805 C343.12,126.049 342.472,127.667 342.472,130.473 C342.471,134.091 344.143,136.088 348.03,136.088 L348.03,136.088 Z M345.709,112.015 C345.709,113.796 346.465,115.035 347.49,116.384 L348.353,117.464 C350.89,115.683 351.484,114.497 351.484,112.337 C351.484,110.019 350.728,108.722 348.677,108.722 C346.629,108.722 345.709,109.962 345.709,112.015 L345.709,112.015 Z" id="Shape" fill="#594A42"></path>
        </g>
    </g>
</svg>