<svg height="165" viewBox="0 0 516 165" width="516" xmlns="http://www.w3.org/2000/svg"><g fill="none" transform="translate(.607 .354)"><g fill="#000" transform="translate(0 57.925)"><path d="m30.571 48.958v-1.812c0-8.029-2.851-11.396-8.031-11.396-5.181 0-8.032 3.367-8.032 11.396v25.648c0 8.029 2.851 11.396 8.032 11.396 5.18 0 8.031-3.367 8.031-11.396v-4.405h14.506v1.812c0 15.286-5.958 25.908-22.537 25.908-16.58 0-22.54-10.622-22.54-25.908v-20.462c0-15.287 5.96-25.908 22.54-25.908 16.321 0 22.276 10.234 22.537 25.127z"/><path d="m57.506 49.739c0-15.287 5.955-25.908 22.534-25.908 16.58 0 22.54 10.621 22.54 25.908v20.462c0 15.286-5.96 25.908-22.54 25.908-16.579 0-22.534-10.622-22.534-25.908zm30.566-2.594c0-8.029-2.849-11.396-8.032-11.396-5.18 0-8.029 3.367-8.029 11.396v25.648c0 8.029 2.849 11.396 8.029 11.396 5.183 0 8.032-3.367 8.032-11.396z"/><path d="m118.633 37.043h-8.548v-11.916h8.548v-8.68c0-11.267 5.96-16.447 16.192-16.447h7.254v11.915h-4.147c-3.494 0-4.791 1.297-4.791 4.664v8.548h8.29v11.916h-8.29v57.769h-14.508z"/><path d="m149.457 37.043h-8.548v-11.916h8.548v-8.68c0-11.267 5.96-16.447 16.192-16.447h7.254v11.915h-4.147c-3.494 0-4.791 1.297-4.791 4.664v8.548h8.29v11.916h-8.29v57.769h-14.508z"/><path d="m226.913 62.69h-30.568v10.104c0 8.029 2.851 11.396 8.031 11.396 5.181 0 8.032-3.367 8.032-11.396v-1.555h14.505c-.261 14.767-6.348 24.87-22.537 24.87-16.579 0-22.54-10.622-22.54-25.908v-20.462c0-15.287 5.96-25.908 22.54-25.908s22.537 10.621 22.537 25.908zm-14.506-11.916v-3.628c0-8.029-2.851-11.396-8.032-11.396-5.18 0-8.031 3.367-8.031 11.396v3.628z"/><path d="m284.416 62.69h-30.571v10.104c0 8.029 2.851 11.396 8.031 11.396 5.181 0 8.032-3.367 8.032-11.396v-1.555h14.508c-.262 14.767-6.351 24.87-22.54 24.87-16.58 0-22.537-10.622-22.537-25.908v-20.462c0-15.287 5.958-25.908 22.537-25.908s22.54 10.621 22.54 25.908zm-14.507-11.916v-3.628c0-8.029-2.852-11.396-8.032-11.396s-8.031 3.367-8.031 11.396v3.628z"/></g><g fill="#000" transform="translate(414.8 81.756)"><path d="m30.568 25.127v-1.812c0-8.029-2.852-11.399-8.031-11.399-5.182 0-8.031 3.37-8.031 11.399v25.648c0 8.029 2.85 11.396 8.031 11.396 5.18 0 8.031-3.367 8.031-11.396v-4.405h14.508v1.812c0 15.283-5.961 25.908-22.539 25.908-16.58 0-22.537-10.625-22.537-25.908v-20.462c0-15.287 5.957-25.908 22.537-25.908 16.32 0 22.277 10.234 22.539 25.127z"/><path d="m54.909 25.908c0-15.287 5.961-25.908 22.539-25.908 16.58 0 22.537 10.621 22.537 25.908v20.462c0 15.283-5.957 25.908-22.537 25.908-16.578 0-22.539-10.625-22.539-25.908zm30.571-2.594c0-8.029-2.85-11.399-8.031-11.399-5.18 0-8.031 3.37-8.031 11.399v25.648c0 8.029 2.852 11.396 8.031 11.396 5.182 0 8.031-3.367 8.031-11.396z"/></g><g transform="translate(297.778)"><path d="m0 68.786c3.95 23.312 7.041 46.139 12.08 68.52 1.512 6.709 7.461 13.46 13.158 17.939 10.424 8.205 23.131 9.797 36.242 7.572 19.805-3.356 30.529-14.128 33.631-33.817 1.609-10.181 3.391-20.337 5.082-30.507 1.619-9.718 3.207-19.431 4.902-29.681-35.478 19.123-69.949 18.994-105.095-.026z" fill="#d1d3d4"/><path d="m49.75 28.528c5.475 3.8 11.541 7.494 17.4 11.275 2.857 1.831 5.623 3.863 7.643 6.137 2.016 2.398 2.691 4.335 1.102 6.377-1.588 2.087-4.287 3.853-6.801 5.302-2.564 1.449-5.094 2.771-7.461 3.958-4.727 2.368-8.637 4.519-11.328 6.07-2.684 1.592-4.115 2.636-4.115 2.636s1.645-.651 4.52-1.792c2.863-1.17 7.051-2.535 12.041-4.38 2.492-.943 5.207-1.939 8.021-3.288 2.783-1.418 5.893-2.777 8.521-5.876 1.307-1.497 2.293-3.977 1.896-6.351-.357-2.355-1.527-4.187-2.756-5.729-2.566-2.97-5.555-5.164-8.584-7.188-3.01-2.008-6.023-3.757-8.99-5.602-2.961-1.797-5.877-3.562-8.697-5.272-5.549-3.465-10.824-6.659-14.229-10.229-1.67-1.794-2.678-3.713-2.795-5.604-.082-1.897.604-3.639 1.312-4.948 1.465-2.644 2.648-4.024 2.648-4.024s-.338.292-.965.836c-.623.56-1.551 1.382-2.52 2.648-.953 1.251-2.07 2.987-2.383 5.42-.32 2.445.709 5.27 2.434 7.515 3.439 4.592 8.615 8.32 14.086 12.109z" fill="#594a42"/></g><path d="m347.274 141.97c-8.258 0-13.113-3.831-13.113-10.956 0-5.236 2.586-8.366 7.715-10.524-2.482-2.754-3.508-5.398-3.508-8.312 0-5.4 3.723-9.123 10.203-9.123 6.045 0 9.879 3.562 9.879 9.013 0 4.316-2.756 6.857-7.125 9.07l5.721 7.014c.539-1.296.971-2.698 1.404-4.211.32-1.133 1.51-1.834 2.643-1.51l1.674.433c1.133.324 1.834 1.51 1.512 2.643-.756 2.914-1.729 5.615-2.969 7.884l5.072 6.206c.543.703.055 1.673-.807 1.673h-5.344c-1.297 0-2.701-.648-3.51-1.673l-.27-.377c-2.429 1.78-5.398 2.75-9.177 2.75zm.756-5.882c1.781 0 3.295-.543 4.643-1.564l-7.719-9.719c-1.834 1.244-2.482 2.862-2.482 5.668-.001 3.618 1.671 5.615 5.558 5.615zm-2.321-24.073c0 1.781.756 3.02 1.781 4.369l.863 1.08c2.537-1.781 3.131-2.967 3.131-5.127 0-2.318-.756-3.615-2.807-3.615-2.048 0-2.968 1.24-2.968 3.293z" fill="#594a42"/></g></svg>